<?xml version='1.0' encoding='UTF-8'?>
<svg viewBox="0 0 32 32" xmlns="http://www.w3.org/2000/svg" xmlns:xlink="http://www.w3.org/1999/xlink">
  <g id="Layer_1" transform="translate(0, 0)" style="enable-background:new 0 0 32 32">
    <g id="Handwheel">
      <path d="M29, 14L25.9, 14C25.7, 11.7 24.8, 9.6 23.4, 8L25.6, 5.8C26, 5.4 26, 4.8 25.6, 4.4C25.2, 4 24.6, 4 24.2, 4.4L22, 6.5C20.3, 5.1 18.2, 4.2 16, 4L16, 1C16, 0.5 15.6, 0 15, 0C14.4, 0 14, 0.5 14, 1L14, 4.1C11.7, 4.3 9.6, 5.2 8, 6.6L5.8, 4.4C5.4, 4 4.8, 4 4.4, 4.4C4, 4.8 4, 5.4 4.4, 5.8L6.5, 8C5.1, 9.7 4.2, 11.8 4, 14L1, 14C0.4, 14 0, 14.5 0, 15C0, 15.5 0.4, 16 1, 16L4.1, 16C4.3, 18.3 5.2, 20.4 6.6, 22L4.4, 24.2C4, 24.6 4, 25.2 4.4, 25.6C4.8, 26 5.4, 26 5.8, 25.6L8, 23.5C9.7, 24.9 11.8, 25.8 14, 26L14, 29C14, 29.5 14.4, 30 15, 30C15.6, 30 16, 29.5 16, 29L16, 25.9C18.3, 25.7 20.4, 24.8 22, 23.4L24.2, 25.6C24.6, 26 25.2, 26 25.6, 25.6C26, 25.2 26, 24.6 25.6, 24.2L23.5, 22C24.9, 20.3 25.8, 18.2 26, 16L29, 16C29.6, 16 30, 15.5 30, 15C30, 14.5 29.6, 14 29, 14zM16, 6.1C17.7, 6.3 19.3, 7 20.6, 8L17.7, 10.9C17.2, 10.6 16.6, 10.3 15.9, 10.2L15.9, 6.1zM14, 6.1L14, 10.1C13.4, 10.2 12.8, 10.5 12.2, 10.8L9.4, 8C10.7, 6.9 12.3, 6.3 14, 6.1zM8, 9.4L10.9, 12.3C10.6, 12.8 10.3, 13.4 10.2, 14.1L6.2, 14.1C6.3, 12.3 6.9, 10.7 8, 9.4zM6.1, 16L10.1, 16C10.2, 16.6 10.5, 17.2 10.8, 17.8L8, 20.6C6.9, 19.3 6.3, 17.7 6.1, 16zM14, 23.9C12.3, 23.7 10.7, 23 9.4, 22L12.3, 19.1C12.8, 19.4 13.4, 19.7 14.1, 19.8L14.1, 23.9zM15, 18C13.3, 18 12, 16.7 12, 15C12, 13.3 13.3, 12 15, 12C16.7, 12 18, 13.3 18, 15C18, 16.7 16.7, 18 15, 18zM16, 23.9L16, 19.9C16.6, 19.8 17.2, 19.5 17.8, 19.2L20.7, 22.1C19.3, 23.1 17.7, 23.7 16, 23.9zM22, 20.6L19.1, 17.7C19.4, 17.2 19.7, 16.6 19.8, 15.9L23.8, 15.9C23.7, 17.7 23.1, 19.3 22, 20.6zM19.9, 14C19.8, 13.4 19.5, 12.8 19.2, 12.2L22, 9.4C23, 10.7 23.7, 12.3 23.9, 14L19.9, 14z" fill="#FFFFFF" class="White" />
    </g>
  </g>
</svg>