<?xml version='1.0' encoding='UTF-8'?>
<svg viewBox="-4 -4 32 32" xmlns="http://www.w3.org/2000/svg" xmlns:xlink="http://www.w3.org/1999/xlink">
  <g id="Layer_1" transform="translate(-4, -4)" style="enable-background:new 0 0 32 32">
    <g id="Phone">
      <path d="M27.7, 23.6L22.4, 18.3C22, 17.9 21.4, 17.9 21, 18.3L18.2, 21.1C15, 19.6 12.4, 17 10.9, 13.8L13.7, 11C14.1, 10.6 14.1, 10 13.7, 9.6L8.4, 4.3C8, 3.9 7.4, 3.9 6.9, 4.3L4.3, 6.9C4.1, 7.2 4, 7.4 4, 7.7C4, 18.9 13.1, 28 24.3, 28C24.6, 28 24.8, 27.9 25, 27.7L27.6, 25.1C28.1, 24.6 28.1, 24 27.7, 23.6z" fill="#FFFFFF" class="White" />
    </g>
  </g>
</svg>