<?xml version='1.0' encoding='UTF-8'?>
<svg viewBox="-4 -2 32 32" xmlns="http://www.w3.org/2000/svg" xmlns:xlink="http://www.w3.org/1999/xlink">
  <g id="Layer_1" transform="translate(-4, -2)" style="enable-background:new 0 0 32 32">
    <g id="Report">
      <path d="M27, 4L24, 4L24, 26L8, 26L8, 4L5, 4C4.4, 4 4, 4.4 4, 5L4, 29C4, 29.6 4.4, 30 5, 30L27, 30C27.6, 30 28, 29.6 28, 29L28, 5C28, 4.4 27.6, 4 27, 4z" fill="#FFFFFF" class="White" />
    </g>
  </g>
  <g id="Layer_1" transform="translate(-4, -2)" style="enable-background:new 0 0 32 32">
    <g id="Report">
      <path d="M20, 4L20, 3C20, 2.4 19.6, 2 19, 2L13, 2C12.4, 2 12, 2.4 12, 3L12, 4L10, 4L10, 8L13, 8L19, 8L22, 8L22, 4L20, 4z" fill="#FFFFFF" class="White" />
    </g>
  </g>
  <g id="Layer_1" transform="translate(-4, -2)" style="enable-background:new 0 0 32 32">
    <g id="Report">
      <g class="st0">
        <rect x="10" y="20" width="12" height="2" rx="0" ry="0" fill="#FFFFFF" class="White" />
      </g>
    </g>
  </g>
  <g id="Layer_1" transform="translate(-4, -2)" style="enable-background:new 0 0 32 32">
    <g id="Report">
      <g class="st0">
        <rect x="10" y="12" width="12" height="2" rx="0" ry="0" fill="#FFFFFF" class="White" />
      </g>
    </g>
  </g>
  <g id="Layer_1" transform="translate(-4, -2)" style="enable-background:new 0 0 32 32">
    <g id="Report">
      <g class="st0">
        <rect x="10" y="16" width="12" height="2" rx="0" ry="0" fill="#FFFFFF" class="White" />
      </g>
    </g>
  </g>
</svg>